<?xml version="1.0" encoding="UTF-8"?>
<svg id="Layer_1" xmlns="http://www.w3.org/2000/svg" version="1.1" viewBox="0 0 31.88 32">
  <!-- Generator: Adobe Illustrator 30.1.0, SVG Export Plug-In . SVG Version: 2.1.1 Build 136)  -->
  <defs>
    <style>
      .st0 {
        fill: #9effd3;
      }

      .st1 {
        fill: #2d0f0a;
      }

      .st2 {
        fill: #2c0e0a;
      }

      .st3 {
        fill: #36ebf5;
      }

      .st4 {
        fill: #8efec6;
      }

      .st5 {
        fill: #2b0607;
      }

      .st6 {
        fill: #dcd99e;
      }

      .st7 {
        fill: #050305;
      }

      .st8 {
        fill: #0a0703;
      }

      .st9 {
        fill: #1da4c4;
      }

      .st10 {
        fill: #00344d;
      }

      .st11 {
        fill: #4ba7d6;
      }

      .st12 {
        fill: #040304;
      }

      .st13 {
        fill: #0b0704;
      }

      .st14 {
        fill: #070300;
      }

      .st15 {
        fill: #00aed1;
      }

      .st16 {
        fill: #160101;
      }

      .st17 {
        fill: #2a0b09;
      }

      .st18 {
        fill: #00b0cf;
      }

      .st19 {
        fill: #090604;
      }

      .st20 {
        fill: #0a0000;
      }

      .st21 {
        fill: #09add3;
      }

      .st22 {
        fill: #09ded5;
      }

      .st23 {
        fill: #080502;
      }

      .st24 {
        fill: #dad4b8;
      }

      .st25 {
        fill: #060301;
      }

      .st26 {
        fill: #d1ffef;
      }

      .st27 {
        fill: #080604;
      }

      .st28 {
        fill: #7fd6ff;
      }

      .st29 {
        fill: #0a0402;
      }

      .st30 {
        fill: #2b0808;
      }

      .st31 {
        fill: #050407;
      }

      .st32 {
        fill: #030304;
      }

      .st33 {
        fill: #180403;
      }

      .st34 {
        fill: #87ffc8;
      }

      .st35 {
        fill: #009f9c;
      }

      .st36 {
        fill: #d9d6a3;
      }

      .st37 {
        fill: #2fcfcf;
      }

      .st38 {
        fill: #97fac8;
      }

      .st39 {
        fill: #080607;
      }

      .st40 {
        fill: #adfcd4;
      }

      .st41 {
        fill: #3dc5c5;
      }

      .st42 {
        fill: #007d88;
      }

      .st43 {
        fill: #79ffff;
      }

      .st44 {
        fill: #bfffe8;
      }

      .st45 {
        fill: #007c87;
      }

      .st46 {
        fill: #00acd0;
      }

      .st47 {
        fill: #009796;
      }

      .st48 {
        fill: #00aece;
      }

      .st49 {
        fill: #83ffff;
      }

      .st50 {
        fill: #86ffff;
      }

      .st51 {
        fill: #050302;
      }

      .st52 {
        fill: #050406;
      }

      .st53 {
        fill: #070402;
      }

      .st54 {
        fill: #090502;
      }

      .st55 {
        fill: #260e0a;
      }

      .st56 {
        fill: #0a0704;
      }

      .st57 {
        fill: #00334a;
      }

      .st58 {
        fill: #00344b;
      }

      .st59 {
        fill: #190203;
      }

      .st60 {
        fill: #7dd1ff;
      }

      .st61 {
        fill: #060405;
      }

      .st62 {
        fill: #0a0602;
      }

      .st63 {
        fill: #050404;
      }

      .st64 {
        fill: #002155;
      }

      .st65 {
        fill: #0a0705;
      }

      .st66 {
        fill: #50ade7;
      }

      .st67 {
        fill: #00334c;
      }

      .st68 {
        fill: #009695;
      }

      .st69 {
        fill: #2d0407;
      }

      .st70 {
        fill: #040302;
      }

      .st71 {
        fill: #0d0000;
      }

      .st72 {
        fill: #050301;
      }

      .st73 {
        fill: #e0dd92;
      }

      .st74 {
        fill: #00334b;
      }

      .st75 {
        fill: #00a9cd;
      }

      .st76 {
        fill: #050303;
      }

      .st77 {
        fill: #4eace3;
      }

      .st78 {
        fill: #7cffff;
      }

      .st79 {
        fill: #007c84;
      }

      .st80 {
        fill: #e0df96;
      }

      .st81 {
        fill: #0f90a6;
      }

      .st82 {
        fill: #d9d6a7;
      }

      .st83 {
        fill: #280306;
      }

      .st84 {
        fill: #0c0705;
      }

      .st85 {
        fill: #00818c;
      }

      .st86 {
        fill: #3a8eb2;
      }

      .st87 {
        fill: #290606;
      }
    </style>
  </defs>
  <g id="Generative_Object">
    <path class="st58" d="M17.72.96c0,.09,1.48.84,1.71.95,1.83.85,3.72,1.53,5.73,1.81l1.25.17c.15.02.29,0,.44.03.21.05.43,0,.65.04.26.05.54.02.8.03.8.05,1.1.59,1.16,1.33l.03.43c.04.48.07.77.08,1.27l.04,1.59c0,.32.01.64,0,.96l-.04,1.18c0,.26-.02.51-.04.77l-.04.61c0,.15-.02.29-.04.44-.18,1.72-.45,3.4-.91,5.06-.59,2.09-1.46,4.06-2.63,5.89-.06.1-.13.16-.13.26-.99,1.34-2.03,2.65-3.31,3.81-.18.16-.34.29-.46.46-.06-.03-.08.03-.14.09-1.35,1.15-2.75,2.18-4.26,3.07-.39.23-.76.42-1.17.62-.04.02-.05.03-.04.08h-.04c.05-.1-.47.07-.69-.02-.61-.24-1.16-.56-1.72-.9-.09-.05-.19-.08-.25-.11-.54-.29-1.04-.63-1.5-1-.04-.09-.1-.12-.17-.17l-1.38-1.06-.44-.39c-.28-.24-.52-.46-.81-.72-2.59-2.39-4.43-5.27-5.56-8.4-.73-2.02-1.22-4.38-1.42-6.63l-.04-.48c-.02-.18,0-.37-.03-.56-.1-.68-.09-4.23,0-4.97.02-.16.03-.33.04-.48l.03-.44c.03-.46.07-.86.34-1.19.43-.54,1.31-.32,1.77-.42.16-.03.32.01.48-.03.09-.03.74-.07.93-.1l1.08-.18.63-.12c2.2-.42,4.26-1.22,6.17-2.36l1.41-.84c.21-.13.45-.32.75-.25.14.03.25.02.38.1l1.15.71c.07.05.15.06.21.08Z"/>
    <path class="st19" d="M17.72.96c-.06-.02-.14-.04-.21-.08l-1.15-.71c-.13-.08-.24-.07-.38-.1-.3-.06-.54.13-.75.25l-1.41.84c-1.91,1.14-3.97,1.94-6.17,2.36l-.63.12-1.08.18c-.18.03-.84.07-.93.1-.15.04-.31,0-.48.03-.46.1-1.33-.13-1.77.42-.27.33-.3.73-.34,1.19l-.03.44c-.01.16-.03.32-.04.48-.08.74-.1,4.29,0,4.97.03.19.02.38.03.56l.04.48c.19,2.25.69,4.61,1.42,6.63,1.13,3.13,2.97,6.01,5.56,8.4.29.27.53.48.81.72l.44.39,1.38,1.06c.07.05.13.09.17.17C5.86,25.42,2.99,19.64,2.35,12.29c-.02-.18-.03-.33-.04-.49l-.04-.65c-.06-1.05-.1-2.27-.04-3.33.02-.35,0-.69.04-1.02-.02.1.08-1.04.08-1.04l.03-.43c.05-.64.37-1.33,1-1.37l.59-.03.7-.04.49-.04c.7-.06,1.11-.14,1.8-.25,1.86-.31,3.62-.88,5.31-1.69,1.1-.53,2.11-1.14,3.15-1.78.34-.21.72-.16,1.04.04l1.16.71s.09.03.09.08Z"/>
    <path class="st56" d="M25.77,23.78c0-.09.06-.16.13-.26,1.18-1.84,2.05-3.8,2.63-5.89.46-1.65.74-3.34.91-5.06.02-.16.03-.3.04-.44l.04-.61c.02-.25.03-.51.04-.77l.04-1.18c.01-.32,0-.64,0-.96l-.04-1.59c-.01-.51-.05-.8-.08-1.27l-.03-.43c-.05-.74-.36-1.28-1.16-1.33-.26-.02-.54.02-.8-.03-.22-.04-.43.01-.65-.04-.15-.04-.29-.01-.44-.03l-1.25-.17c-2.01-.28-3.9-.96-5.73-1.81-.22-.1-1.7-.85-1.71-.95.27.09.49.26.74.38l1.38.69.62.26c1.97.82,4.03,1.35,6.18,1.55.2.02.37.04.55.05l.72.03c.07,0,.15.04.22.03.76-.09,1.3.47,1.35,1.19,0,.11.03.26.04.37l.04.49c.16,1.89.14,4.48-.04,6.37-.39,4.17-1.4,7.86-3.63,11.27-.05.07-.09.1-.12.14Z"/>
    <path class="st13" d="M22,28.06c-.48.67-3.88,2.98-4.72,3.41l-.88.45s0-.06.04-.08c.4-.21.77-.39,1.17-.62,1.51-.88,2.91-1.92,4.26-3.07.06-.05.07-.11.14-.09Z"/>
    <path class="st65" d="M22,28.06c.12-.17.28-.3.46-.46,1.29-1.16,2.32-2.47,3.31-3.81,0,.12-.1.19-.17.29-.77,1.12-1.64,2.15-2.64,3.12-.18.18-.32.35-.51.49-.15.11-.26.26-.41.38-.03-.01-.04-.01-.05,0Z"/>
    <path class="st84" d="M16.35,31.92c-.26.12-.55.11-.83,0-.5-.21-1.23-.63-1.72-.93-.04-.03-.1-.04-.11-.09.06.03.16.05.25.11.56.34,1.11.66,1.72.9.22.09.73-.08.69.02Z"/>
    <path class="st11" d="M28.57,4.87c.11.06.08.21.09.3l.05.45c.04.38.06.97.08,1.37l.04,1.12.03,1.84s.02.01.03.01c0,.18.02.35-.03.51-.06.21,0,.44-.02.65-.14-.1-.06.34-.11.24.05.08-.02.17-.03.24-.02.17.07.38,0,.57.03-.06-.13.88-.02.77l-.23,1.62c-.29,2.04-.87,4.03-1.72,5.85-.08.18-.39.56-.39.73,0,.11-.11.26-.19.36-.1.11-.14.26-.21.42-.04.1-.16.17-.18.3-.03.14-.13.25-.21.36l-.83,1.26c-.17.26-.35.49-.55.72-.03.04-.07.13-.11.17l-.21.25c-.12.13-.43.51-.51.59l-1.48,1.5s-.04.07-.06.1c-.02.04-.09,0-.11.01-.12.16-.86.77-.83.77-.12.02-.13.1-.22.17-.25.19-.24.17-.44.33l-.22.19c-.15.13-.33.23-.5.36l-.34.25c-.08.06-.15.17-.23.23-.48.41-.99.65-1.43.99-.24.1-.45.27-.7.39l-.55.28c-.15.08-.3.12-.46.05-.67-.3-1.28-.67-1.9-1.09l-1.12-.75c-1.03-.77-1.99-1.57-2.94-2.4l-.91-.95c-.32-.33-.59-.65-.88-1l-.21-.25c-.06-.07-.14-.11-.12-.2.01-.07-.07-.15-.12-.21-.33-.39-.56-.79-.81-1.24-.35-.63-.72-1.22-1.02-1.87-.21-.44-.42-.87-.58-1.31l-.41-1.12c-.03-.08-.08-.19-.1-.27l-.3-1.02c-.65-2.2-.99-5.52-1.02-7.87-.02-1.59.03-3.12.25-4.69,0-.06.16-.08.21-.08,1.29-.02,2.54-.13,3.78-.37.02,0,.04-.05.05-.06.04-.02.05.04.1.03,2.28-.4,4.42-1.19,6.43-2.34.64-.37,1.22-.72,1.81-1.16.69.52,1.37.92,2.09,1.31.52.28,1.04.57,1.6.77.03.01.06.04.09.05,2.81,1.21,5.56,1.77,8.72,1.77.05,0,.1,0,.1-.04Z"/>
    <path class="st76" d="M23.36,25.65c1.25-1.39,2.29-2.91,3.09-4.56.05-.11.32-.65.28-.67.86-1.82,1.44-3.81,1.72-5.85l.23-1.62c.04-.31.07-.78.1-1.14l.06-.68c.02-.21-.05-.44.02-.65.05-.16.03-.33.03-.51-.02-.77.04-1.54-.03-2.31-.03-.37.01-.73-.04-1.08-.03-.21.01-.41-.04-.61-.05-.17.02-.35-.03-.52-.04-.11.02-.73-.29-.75l-.79-.03-.73-.04c-.16,0-.32-.02-.48-.04-1.81-.17-3.57-.58-5.23-1.18-1.8-.65-3.54-1.53-5.16-2.64-.06-.04-.21-.03-.26,0l-1.06.65c.15-.14,1.03-.75,1.18-.75.1,0,.18.06.27.13.91.64,1.86,1.15,2.85,1.64,2.24,1.11,4.66,1.8,7.19,2.08.18.02.33.03.49.04l.57.04,1.04.04c.48.02.46.49.5,1.03l.03.56c.02.27,0,.54.04.81.05.31.02.63.04.96.04.66.04,1.34,0,2-.02.33,0,.64-.04.96-.03.22-.03.43-.04.65l-.03.52c0,.11-.08.86-.1.97l-.24,1.68c-.36,2.48-1.17,4.84-2.33,7.04-.73,1.38-1.64,2.63-2.68,3.82-.04.05-.09.03-.12.03Z"/>
    <path class="st51" d="M14.74,1.42c-.22.2-.86.55-1.16.7-.27.13-.51.28-.75.42-.03,0-.07,0-.11.01-.74.39-1.49.68-2.28.95-1.57.54-3.2.86-4.87,1.05-.09.01-.69.06-.7.06-.09,0-.17.02-.27.02l-.75.04-.43.03c-.23.02-.26.69-.27.92l-.03.47c-.02.33-.08.88-.07,1.17,0,.17-.02.34-.02.52-.03.7-.04,1.42,0,2.12.02.32,0,.63.04.94.02.14.03.28.02.41,0,0,.05.75.06.83.19,1.91.49,3.79,1.01,5.62.69,2.4,1.78,4.65,3.33,6.65.08.1.12.19.21.22-.02.09.07.13.12.2l.21.25c.28.34.56.67.88,1l.91.95c-.32-.29-.65-.58-.95-.91l-.38-.41c-.1-.11-.18-.22-.3-.35-1.9-2.19-3.24-4.71-4.04-7.43-.49-1.67-.79-3.39-.99-5.14-.02-.14-.03-.27-.04-.4l-.04-.52c-.01-.17,0-.34-.03-.52-.1-.67-.09-4.26,0-4.97.02-.18,0-.36.04-.52.04-.13-.01-.27.03-.39.05-.14-.01-.77.38-.79l.76-.03c.21,0,.41-.02.63-.04,1.67-.14,3.3-.42,4.9-.9s3.22-1.24,4.72-2.11c.1-.06.16-.13.25-.13Z"/>
    <path class="st77" d="M23.36,25.65s-.05.05-.04.08l-1.48,1.45c-.12.12-.25.21-.34.33-.86.66-1.67,1.41-2.59,1.99.07-.06.14-.17.23-.23l.34-.25c.17-.13.36-.23.5-.36l.22-.19c.2-.17.19-.14.44-.33.09-.07.1-.15.22-.17-.03,0,.71-.61.83-.77.02-.02.09.03.11-.01.01-.03.03-.07.06-.1l1.48-1.5c.08-.09.4-.46.51-.59l.21-.25s.08-.13.11-.17c.2-.23.38-.46.55-.72l.83-1.26c.07-.11.18-.22.21-.36.02-.13.14-.2.18-.3.07-.16.12-.3.21-.42.08-.1.19-.24.19-.36,0-.17.31-.55.39-.73.04.02-.23.57-.28.67-.8,1.64-1.84,3.17-3.09,4.56Z"/>
    <path class="st61" d="M17.48,30.5c-.41.36-.92.56-1.4.81-.29.15-1.92-.91-2.24-1.13l-.92-.62c-.07-.05-.12-.14-.17-.17l1.12.75c.61.41,1.23.79,1.9,1.09.17.07.32.03.46-.05l.55-.28c.25-.13.46-.29.7-.39Z"/>
    <path class="st63" d="M21.5,27.51c.09-.12.22-.21.34-.33l1.48-1.45s0,.02.01.06l-1.46,1.43c-.11.11-.23.19-.33.31-.04-.02-.05-.02-.06-.02Z"/>
    <path class="st24" d="M21.21,3.41s-.02.07,0,.07c1.63.58,3.65,1.06,5.46,1.19l.57.04.74.05c-.03.18.31-.11.48.08.07-.06.12-.02.11.02,0,.05-.05.04-.1.04-3.16,0-5.91-.56-8.72-1.77-.02-.01-.06-.04-.09-.05-.56-.2-1.07-.49-1.6-.77-.72-.38-1.4-.79-2.09-1.31-.59.44-1.17.79-1.81,1.16-2.01,1.15-4.15,1.93-6.43,2.34-.05,0-.06-.05-.1-.03-.02,0-.03.05-.05.06-1.24.24-2.5.34-3.78.37-.05,0-.2.02-.21.08-.22,1.56-.27,3.1-.25,4.69.03,2.35.38,5.67,1.02,7.87l.3,1.02c.02.07.07.18.1.27l.41,1.12c.16.44.37.87.58,1.31.3.65.67,1.24,1.02,1.87.25.44.48.85.81,1.24.05.06.14.14.12.21-.09-.04-.13-.12-.21-.22-1.55-2-2.64-4.25-3.33-6.65-.52-1.82-.82-3.71-1.01-5.62,0-.08-.06-.83-.06-.83.02,0,.05,0,.06,0,.06-.02,0-.06,0-.1-.05-.29.04-.58-.05-.88v-3s-.05-.02-.05-.01c-.01-.29.04-.84.07-1.17l.03-.47c.02-.22.05-.9.27-.92l.43-.03.75-.04c.1,0,.18-.03.27-.02.15.1.35.03.55,0,1.61-.16,3.16-.46,4.67-.94.96-.31,1.9-.66,2.75-1.14.24-.14.48-.29.75-.42.3-.15.94-.51,1.16-.7l1.06-.65c.05-.03.2-.04.26,0,1.61,1.11,3.35,1.99,5.16,2.64Z"/>
    <path class="st38" d="M4.86,6.52c-.08.14-.03.32-.05.49-.1.62-.07,3.2-.05,3.98,0,.22.03.44.05.65l.04.53c.13,1.84.45,3.63,1.06,5.36l.58,1.66s-.05-.04-.06-.07l-.37-.96c-.71-1.85-1.05-3.82-1.26-5.82-.02-.17,0-.33-.04-.49-.04-.19-.01-.37-.04-.57-.09-.57-.09-3.36,0-3.91.03-.21-.01-.41.04-.6.03-.12,0-.22.03-.33.04.04.02.1.07.08Z"/>
    <path class="st40" d="M28.89,9.97s-.03,0-.03-.01l-.03-1.84-.04-1.12c-.01-.4-.04-.98-.08-1.37l-.05-.45c-.01-.1.02-.24-.09-.3.01-.04-.03-.08-.11-.02-.17-.19-.51.11-.48-.08l-.74-.05-.57-.04c-1.81-.13-3.83-.61-5.46-1.19-.03,0,0-.06,0-.07,1.67.6,3.42,1.01,5.23,1.18.17.02.33.03.48.04l.73.04.79.03c.32.01.26.64.29.75.06.16-.01.34.03.52.05.2.01.4.04.61.05.35,0,.71.04,1.08.06.77,0,1.54.03,2.31Z"/>
    <path class="st86" d="M16.06,29.09c.42-.32.92-.56,1.38-.86.19-.13.37-.27.57-.34.5-.19.32-.36.62-.19l-1.05.75c-.22.16-1.17.73-1.45.82-.01-.1-.04-.14-.07-.19Z"/>
    <path class="st4" d="M26.98,6.44c-.1,0-.2-.02-.31-.02l-.59-.04-.44-.04c-.11-.01-.23-.03-.36-.04-2.57-.32-5.03-1.02-7.31-2.16-.04-.02-.08-.02-.07-.06.08.03.17.04.28.1,2.27,1.12,4.72,1.79,7.27,2.08.13.02.25.03.36.04l.56.04c.2.01.4,0,.6.03.02.02,0,.06,0,.08Z"/>
    <path class="st0" d="M12.87,4.57c-.07.08-.19.11-.3.16-1.93.82-4.23,1.39-6.41,1.61l-.44.04-.55.04c-.11,0-.21.02-.31.02,0-.12.26-.08.57-.1l.52-.04c2.23-.19,4.7-.81,6.66-1.64.1-.04.16-.09.25-.08Z"/>
    <path class="st82" d="M26.98,12.25c.03-.25.1-1,.11-1.27.02-.87.05-3.22-.05-3.97-.03-.2-.02-.39-.02-.57.03.09.1.27.09.38-.03.23.03.45.04.66l.02.73c.02.66.06,2.51-.05,3.06-.04.2.02.41-.03.59-.07.29.05.42-.11.39Z"/>
    <path class="st34" d="M15.28,3.37c0,.1-.32.14-.33.25l-1.74.83c-.12.06-.22.13-.34.12.09-.11.25-.13.38-.19l1.63-.82c.13-.07.25-.17.39-.19Z"/>
    <path class="st36" d="M25.28,19.43s0-.02-.01-.05c.33-.74.58-1.48.8-2.23,0,0,.03,0,.05.02-.21.77-.49,1.51-.8,2.26,0,.02-.03.01-.03,0Z"/>
    <path class="st66" d="M20.91,25.61l1.17-1.16c-.12.26-.36.45-.57.67-.19.2-.36.39-.59.49Z"/>
    <path class="st60" d="M28.84,11.13l-.06.68c-.03.37-.06.83-.1,1.14-.11.1.04-.84.02-.77.08-.19-.01-.39,0-.57,0-.07.08-.16.03-.24.06.09-.03-.34.11-.24Z"/>
    <path class="st6" d="M24.86,20.34c.03-.15.33-.82.41-.91.02.1-.26.63-.32.77-.02.06-.02.13-.1.15Z"/>
    <path class="st26" d="M12.83,2.54c-.85.49-1.79.83-2.75,1.14-1.51.49-3.06.78-4.67.94-.2.02-.4.09-.55,0,0,0,.62-.05.7-.06,1.67-.19,3.3-.51,4.87-1.05.79-.27,1.54-.56,2.28-.95.04-.02.08-.01.11-.01Z"/>
    <path class="st44" d="M3.08,11.25c0-.13,0-.27-.02-.41-.04-.31-.02-.62-.04-.94-.05-.7-.03-1.42,0-2.12,0-.18.03-.35.02-.52,0,0,.04,0,.04.01v3c.1.3,0,.59.06.88,0,.03.07.07,0,.1-.02,0-.04,0-.06,0Z"/>
    <g>
      <path class="st57" d="M22.95,23.33c-.06.02-.11.1-.17.17l-.17.21c-.19.23-.36.43-.58.66l-1.19,1.25s0,.05-.04.03c-.09-.03-.11.06-.19.12-1.29,1.15-2.68,2.12-4.14,2.98l-.52.31c-1.53-.84-2.96-1.79-4.29-2.93-.04-.03-.06-.02-.08-.02-.03,0-.06-.02-.08-.04.08-.03-.39-.45-.46-.51-.49-.42-1.11-1.17-1.37-1.37-.02-.11-.12-.19-.21-.3-2.81-3.29-4.09-7.26-4.54-11.52-.02-.18,0-.33-.04-.49-.04-.21,0-.43-.04-.65-.04-.27-.02-.55-.04-.83-.04-.7-.04-1.42,0-2.12.02-.31,0-.6.04-.9.03-.19-.01-.38.03-.56.03-.12.03-.22.02-.35,2.53-.02,6.21-.92,8.3-1.95l1.61-.79c.06-.03.13-.05.14-.11.03-.02.08-.01.13-.04l.87-.51c1.34.85,2.73,1.53,4.2,2.07,1.69.62,3.83,1.11,5.7,1.28l.48.04c.2.02.4,0,.61.02-.02.09,0,.18.02.26.04.2,0,.42.03.64.05.35.02.7.04,1.06.06.88.02,1.95-.04,2.81l-.04.57c-.27,3.94-1.53,8.19-3.88,11.29-.06.07-.13.13-.13.21Z"/>
      <path class="st70" d="M17.89,4.07s.03.04.07.06c2.28,1.14,4.75,1.84,7.31,2.16.13.02.25.03.36.04l.44.04.59.04c.11,0,.21.02.31.02h.04c0,.19,0,.37.02.57.1.75.07,3.1.05,3.97,0,.26-.08,1.01-.11,1.27-.13,1.65-.46,3.38-.91,4.9-.23.75-.47,1.5-.8,2.23.02.03.01.04.01.05-.09.1-.38.76-.41.91-.06.06-.12.17-.16.26-.44.89-.96,1.72-1.56,2.53-.06.08-.1.16-.19.19,0-.08.07-.14.13-.21,2.35-3.1,3.61-7.35,3.88-11.29l.04-.57c.06-.87.1-1.93.04-2.81-.03-.36.01-.71-.04-1.06-.03-.22,0-.43-.03-.64-.02-.09-.04-.17-.02-.26-.21-.03-.41,0-.61-.02l-.48-.04c-1.87-.17-4.01-.66-5.7-1.28-1.47-.54-2.86-1.22-4.2-2.07l-.87.51s-.09.02-.13.04c0-.11.34-.15.33-.25.16-.02.57-.35.68-.33.08.01.15.08.23.13.57.33,1.11.69,1.7.91Z"/>
      <path class="st51" d="M14.94,3.62c0,.06-.08.08-.14.11l-1.61.79c-2.09,1.03-5.76,1.93-8.3,1.95,0,.14,0,.24-.02.35-.04.18,0,.36-.03.56-.05.29-.02.59-.04.9-.04.7-.04,1.42,0,2.12.02.28,0,.56.04.83.03.22,0,.43.04.65.03.16.02.31.04.49.45,4.26,1.73,8.23,4.54,11.52.1.11.19.2.21.3-.11-.08-.19-.17-.29-.3-1.19-1.42-2.14-2.97-2.84-4.65-.02-.04-.02-.08-.06-.07l-.58-1.66c-.6-1.72-.92-3.52-1.06-5.36l-.04-.53c-.02-.21-.04-.43-.05-.65-.02-.77-.05-3.35.05-3.98.03-.17-.02-.34.05-.49.01-.02,0-.06,0-.08.1,0,.2-.02.31-.02l.55-.04.44-.04c2.18-.22,4.48-.79,6.41-1.61.12-.05.23-.08.3-.16.11.01.22-.07.34-.12l1.74-.83Z"/>
      <path class="st27" d="M20.8,25.65c-.79.81-1.73,1.46-2.65,2.12-.06.04-.13.05-.13.12-.2.08-.38.22-.57.34-.46.3-.96.54-1.38.86-.02-.04-.07.05-.11.03-1.39-.75-2.84-1.7-4.08-2.74-.14-.12-.23-.16-.3-.28.03,0,.04-.01.08.02,1.33,1.14,2.76,2.09,4.29,2.93l.52-.31c1.46-.86,2.85-1.82,4.14-2.98.07-.07.1-.15.19-.12Z"/>
      <path class="st12" d="M22.08,24.44l-1.17,1.16s-.05.03-.08,0l1.19-1.25c.22-.23.39-.43.58-.66l.17-.21c.05-.06.1-.14.17-.17.01.1-.61.79-.74.92-.08.08-.1.12-.13.2Z"/>
      <path class="st70" d="M11.5,26.07l-.5-.47c-.28-.26-.57-.53-.82-.82-.2-.23-.48-.45-.5-.58.26.19.87.94,1.37,1.37.06.05.54.47.46.51Z"/>
      <path class="st21" d="M15.77,4.57s-.03,0-.04.01v7.54c-.23,0-.51.04-.54.25-.01.07-.12.13-.12.23v.97s-.04.01-.08.03c-.04-.07-.13-.08-.17-.12-.5-.37-1.24-.31-1.75.05.22-.61.37-.96-.25-1.42-.25-.19-.51-.27-.88-.25-.42.02-.82.18-1.08.55-.06-.05-.09-.11-.16-.14-.02,0-.02-.02-.04,0-.19-.24-.55-.36-.85-.31-.51.08-.93.45-.97.98l-.02.3c-.01.16.09.36-.03.49l-.37.24s-.04-.03-.04-.04v-1.35s-.08-.04-.05-.07c.01-.01-.02-.02-.04-.02-.06,0-.07-.07-.1-.11-.07-.1-.2-.13-.28-.18,0-.02,0-.04,0-.08h-1.35s0,.06,0,.08c-.06,0-.16.04-.21.08-.15-.83-.17-1.69-.17-2.57v-2.08s.85-.1.85-.1c1.25-.15,2.48-.4,3.67-.8.09-.03,1.14-.31,1.16-.36l.04-.07s.05-.07.06.03l.86-.32c.07-.03.14,0,.22-.09s.29-.14.44-.17c.07-.01.09-.14.22-.08.06.02.15-.09.2-.11l1.79-.96c-.08-.05.14-.49-.03-.52-1.67.96-3.37,1.71-5.19,2.24-1.56.46-3.2.7-4.85.83,0,.04-.04.13-.04.17l-.03,1.16c-.01.51-.04,1.04,0,1.55.03.37,0,.74.04,1.1,0-.05.08.98.08,1.04l.03.39c.03.39.1.96.2,1.26-.01-.03,0-.06-.03-.08-.02-.01-.02-.02-.05-.01-.07-.05-.05-.14-.06-.23l-.1-.69c-.02-.13-.02-.26-.03-.39l-.04-.48c-.13-1.38-.12-2.66-.09-4.07,0-.26.05-.5.02-.77,1.61-.1,3.4-.38,4.85-.8,1.88-.54,3.63-1.33,5.38-2.33.05.2.02.41.02.6Z"/>
      <path class="st35" d="M25.69,14.07c.02-.11-.02-.24-.02-.34-.01-.54-.27-1.02-.72-1.28-.25-.15-.49-.28-.82-.31-.56-.05-1.15.01-1.64.3-.09.05-.2.08-.24.17-.11,0-.16.12-.26.23-.17-.2-.34-.35-.57-.44-.2-.08-.39-.23-.62-.2,0-.01,0-.06,0-.08h-1.86c-.17,0-.41.04-.41.21,0,.07-.11.13-.08.21-.06.04-.1-.02-.17,0-.24-.2-.56-.32-.87-.32,0-.02,0-.06,0-.08h-1.12s.05-7.51.05-7.51c.17.06.32.14.5.25,2.89,1.58,5.73,2.41,9.01,2.71.06,1.12.08,2.23-.01,3.35l-.18,2.28c.06.06.17.94.06.87Z"/>
      <path class="st68" d="M21.38,15.98c.06.13.1.27.16.42.11.31.5.92.83.98.14.14.36.2.55.26-.04.18-.83-.35-1.03-.51.32,1.02,1.57,1.2,2.55.96-.2.62-.48,1.19-.76,1.79-.31.66-.67,1.23-1.08,1.83-.72,1.06-1.51,1.99-2.44,2.87-1.16,1.08-2.48,2.1-3.83,2.83-.1-3.06,0-6.15-.05-9.25,0-.02.09-.04.05-.06l2.9-.02c.31,0,.61.04.92-.02.39-.08.57-.47.57-.83v-.6s.77-.21.77-.21c-.04-.16-.08-.26-.14-.4-.26.1-.51.16-.78.23v.86s-.03.06-.03.09c0,.02-.02.05-.06.04v-1.04c.1-.02.95-.21.89-.25.01,0,.03.02.02.04Z"/>
      <path class="st45" d="M15.73,17.73c.01.11-.01.23-.01.34-.21.03-.37-.15-.58-.2-.14.02-.33.12-.47.17-.72.23-1.49,0-1.94-.62-.04.18-.03.31-.11.44-.2.17-.44.24-.71.24h-4.46c.5,1.32,1.15,2.49,1.91,3.63.87,1.31,1.87,2.48,3.07,3.49.48.44.98.81,1.51,1.2.58.43,1.17.8,1.8,1.11,0,.12.02.59-.04.61-1.11-.58-2.11-1.32-3.12-2.08-.57-.51-1.13-1-1.69-1.57-.85-.86-1.56-1.8-2.23-2.77-.23-.39-.42-.79-.67-1.13l-.83-1.74-.39-1.08s.03,0,.05-.04h5.4c.15-.01.26-.17.27-.26.01-.11.14-.24.09-.37.77.72,1.42.82,2.49.3.15.16.4.36.66.32Z"/>
      <path class="st81" d="M6.35,12.29s-.08,0-.08-.02c0-.05.02-.09-.02-.15-.02.26-.16.42-.16.54v1.25s-.08.07-.11.08c-.04-.03-.06-.11-.08-.16-.1-.3-.17-.86-.2-1.26l-.03-.39c0-.06-.09-1.09-.08-1.04-.05-.36-.01-.73-.04-1.1-.04-.51-.01-1.04,0-1.55l.03-1.16s.04-.12.04-.17c1.65-.13,3.29-.37,4.85-.83,1.82-.54,3.52-1.28,5.19-2.24.17.03-.05.47.03.52l-1.79.96s-.14.14-.2.11c-.13-.05-.15.07-.22.08-.15.03-.36.08-.44.17s-.15.06-.22.09l-.86.32c-.01-.1-.05-.05-.06-.03l-.04.07s-1.07.32-1.16.36c-1.19.4-2.42.65-3.67.8l-.84.1v2.08c-.01.88,0,1.74.16,2.57Z"/>
      <path class="st79" d="M22.91,17.64c.06.01.11.03.17.04.77.13,1.52-.01,2.15-.45l-.23.75-.43,1.15c-.07.18-.17.34-.21.51-.73,1.5-1.61,2.93-2.75,4.2-.88.97-1.73,1.78-2.81,2.6-.6.46-1.78,1.25-2.43,1.58-.13.13-.12-.6-.04-.61,1.35-.72,2.67-1.74,3.83-2.83.94-.87,1.73-1.81,2.44-2.87.41-.6.77-1.17,1.08-1.83.28-.6.56-1.17.76-1.79-.98.24-2.23.06-2.55-.96.2.16,1,.69,1.03.51Z"/>
      <path class="st85" d="M16.52,4.19c.25.1.48.26.74.39.18.09.37.16.51.27.2.16.45.26.71.38.19.09,1.26.54,1.34.55.01,0,.03-.02.02-.04.16.07.33.12.5.17,0,.04-.02.07.04.09,1.6.53,3.23.91,4.93,1.08.25.02.48.09.67,0,.03,0,.06,0,.08,0,0,.02,0,.05,0,.06.02.03.08.02.16.02.05,1.11.08,2.37.02,3.51-.01.3,0,.59-.04.87,0,.04-.07.62.02.56l-.15,1.38c-.01.13-.02.25-.06.36s.02.29-.1.41c-.04.04-.16.06-.21.04-.04-.05-.03-.15-.02-.2.11.07,0-.81-.06-.87l.18-2.28c.09-1.12.07-2.22.01-3.35-3.28-.3-6.12-1.13-9.01-2.71-.19-.11-.33-.18-.5-.25,0-.11-.13-.26-.02-.43-.04-.09.03-.11.1-.02.05-.03.05.02.07.03.01,0,.05,0,.06,0Z"/>
      <path class="st42" d="M16.31,18.1h-.08c0-.09-.09-.22-.04-.33.25.05.5-.08.75-.08,0,.02,0,.04.04.04h3.14s.04-.08.08-.04c.01.01.02-.04.02-.05.12-.11.25-.23.25-.41.04.01.05-.01.06-.04,0-.03.02-.05.02-.09v-.86c.28-.07.53-.12.79-.23.06.14.1.24.14.4l-.76.21v.6c0,.36-.19.76-.58.83-.3.06-.61.01-.92.02l-2.9.02Z"/>
      <path class="st52" d="M15.07,13.57v-.97c.01-.1.12-.15.13-.23.16-.14.35-.23.58-.21v-7.59c0-.19.02-.4-.02-.6-1.75,1-3.5,1.78-5.38,2.33-1.46.42-3.24.7-4.85.8.04.27,0,.51-.02.77-.04,1.41-.04,2.7.09,4.07l.04.48c.01.13.01.26.03.39l.1.69c.01.08,0,.17.06.23-.03.01-.09.01-.09-.02,0-.03-.01-.06-.02-.09l-.09-.6c-.02-.13-.02-.26-.03-.39l-.05-.44c-.02-.19-.07-1-.08-1.04-.05-.31-.01-.63-.04-.96-.05-.59-.04-1.2,0-1.79.02-.23,0-1.36.11-1.37l.55-.04c1.24-.09,3.34-.46,4.46-.82l.51-.16c1.61-.51,3.17-1.24,4.64-2.09.04-.02.15,0,.16.07v8.14s-.04.09-.07.1c0,0-.58-.09-.66.44-.05.31,0,.64-.02.98-.05,0-.03-.05-.04-.09Z"/>
      <path class="st23" d="M22.41,16.56c.66.74,1.9.7,2.61.08v-1.98s-1.48,0-1.48,0v.78s.65,0,.65,0c0,.25.02.47,0,.69-.3.15-.61.2-.86.01s-.36-.47-.39-.77c-.05-.56-.07-1.46.34-1.79.23-.18.51-.18.72-.01.15.12.18.32.22.53l.81-.18c.03-.78-.57-1.28-1.29-1.28-1.11,0-1.67.83-1.76,1.81-.07.72.01,1.54.44,2.1-.7-.81-.69-2.56-.03-3.35.42-.5.92-.69,1.54-.62,1.13.12,1.27,1.33,1.13,1.37-.26.09-.56.13-.84.21-.11-.03-.09-.23-.11-.34l-.08-.16c-.1-.2-.49-.23-.7-.06-.35.28-.4,1.1-.35,1.59.04.32.08.69.4.9.18.12.53.12.71,0,.08-.16.02-.4.02-.58l-.6-.04c-.02-.26-.01-.64,0-.87,0-.11,1.29-.06,1.44-.06.14,0,.17.13.16.24,0,.6.02,1.18-.01,1.77-.02.29-.99.65-1.59.58-.44-.05-.91-.23-1.1-.61Z"/>
      <path class="st29" d="M15.77,28.14v-10.42s.08.03.08.06v10.39s-.08-.03-.08-.03Z"/>
      <path class="st41" d="M16.31,18.1s-.05.04-.05.06c.05,3.09-.05,6.19.05,9.25-.08.01-.09.74.04.61-.04.02-.09.12-.16.08l.04-10h.08Z"/>
      <path class="st43" d="M10.07,12.54c.21.04.31.17.37.31.06.17.01.33-.11.47-.15.18-.42.23-.63.12-.2-.11-.29-.35-.21-.58s.29-.37.58-.31Z"/>
      <path class="st37" d="M16.49,4.12s.04.04.04.08c-.01,0-.05.02-.06,0-.01,0-.01-.06-.07-.03-.07-.09-.14-.07-.1.02-.11.16.02.32.02.43l-.05,7.51h1.12s0,.07,0,.09c-.03,0-.07-.03-.1-.03-.35-.03-.69-.01-1.02-.01h-.08V4.02c.25.04-.07,0,.3.09Z"/>
      <path class="st69" d="M12.49,17.47c-.1.08-.21.21-.37.21h-5.35s-.01-.08.05-.08h5.4c.23-.16.27-.32.37-.5.05.12-.07.26-.09.37Z"/>
      <path class="st64" d="M12.57,26.06c-.08-.06-.19-.04-.26-.15-.03-.05-.43-.36-.62-.57-.08-.09-.19-.16-.28-.23-.24-.2-1.25-1.25-1.37-1.44-.04-.07-.65-.76-.65-.79,0,0-.27-.36-.31-.42l-.23-.33s-.33-.51-.21-.41c.67.97,1.38,1.9,2.23,2.77.56.57,1.12,1.07,1.69,1.57Z"/>
      <path class="st22" d="M15.77,28.14c0,.08-.05,0-.08,0,.06-.03.04-.49.04-.61v-9.46c-.01-.11.01-.23,0-.34.02,0,.04,0,.04,0v10.42Z"/>
      <path class="st5" d="M26.02,13.82c.04-.11.05-.23.06-.36l.15-1.38c.02-.23.05-.7.06-.97l.05-1.58c0-.19,0-.35,0-.54l-.04-1.62c0-.09-.05-.18-.02-.27.02,0,.04,0,.09,0-.03.25.01.5.02.76.04,1.37.03,2.78-.09,4.12l-.04.48c-.01.14-.01.29-.03.43l-.12.84s.03.07-.01.08c-.02,0-.04,0-.06,0Z"/>
      <path class="st20" d="M16.23,18.1l-.04,10s-.05,0-.05-.05v-10.23c0-.05.02-.06.04-.05-.05.11.04.24.04.33Z"/>
      <path class="st31" d="M7.93,12.21c.07.05.2.08.28.18.03.04.03.11.1.11,0,.04-.03.1.04.14v1.36s-.06,0-.07,0l-.03-1.38c0-.15-.18-.33-.33-.34-.46-.02-.92-.03-1.38,0-.56.05-.17,1.92-.35,2.26-.1-.05-.02-.2-.02-.27.03-.49.02-.97.01-1.47,0-.2.05-.36.17-.5.04-.05.15-.08.21-.08.01,0,.04-.04.05-.04h1.27s.05.04.05.04Z"/>
      <path class="st71" d="M16.19,4.02v8.14s-.03,0-.05-.02l.05-8.13Z"/>
      <path class="st18" d="M20.55,5.98c1.06.35,2.13.67,3.24.83l1.25.18.56.05c.14.01.27.03.4.02-.19.09-.43.03-.67,0-1.7-.17-3.33-.55-4.93-1.08-.06-.02-.05-.05-.04-.09.07.02.14.06.21.08Z"/>
      <path class="st75" d="M26.27,7.1c-.02.08.02.18.02.27l.04,1.62c0,.19,0,.35,0,.54l-.05,1.58c0,.27-.03.74-.06.97-.09.06-.02-.51-.02-.56.03-.28.03-.58.04-.87.05-1.14.02-2.4-.02-3.51-.08,0-.14.02-.16-.02,0-.01,0-.04,0-.06.06.02.17-.05.21.04Z"/>
      <path class="st15" d="M6.77,17.77s-.03-.05-.04-.06c0,0,.03-.03.04-.02h5.35c.17,0,.27-.14.37-.21-.01.09-.12.24-.27.24h-5.4s-.04.06-.05.05Z"/>
      <path class="st9" d="M6.35,12.29c-.12.14-.17.3-.17.5,0,.5.02.98-.01,1.47,0,.07-.08.22.02.27-.02.08-.1.05-.09-.03-.01-.19-.13-.35-.11-.51.03,0,.12-.03.12-.08v-1.25c-.01-.12.12-.29.15-.54.04.06.01.1.02.15,0,.03.05.03.08.02Z"/>
      <path class="st16" d="M20.79,12.21c.23-.04.43.12.62.2-.09.05-.28-.13-.58-.14l-2.04-.02c-.19,0-.24.21-.37.29-.03-.08.08-.13.08-.21.09-.05.18-.15.31-.15.59-.02,1.19-.02,1.79,0,.06,0,.12.04.18.03Z"/>
      <path class="st87" d="M23.78,6.81c-1.11-.16-2.18-.48-3.24-.83-.46-.2.92.22.51.07.23.08.44.2.71.22.13,0,.3.12.46.15l1.47.31s.07-.02.08.02c0,.02,0,.04,0,.06Z"/>
      <path class="st32" d="M10.67,12.28c-.1.08-.13-.26-.75-.24-.53,0-.95.37-1.02.89-.04.26,0,.53-.02.81-.02.02-.07,0-.08,0,.12-.14.01-.33.03-.49l.02-.3c.04-.53.46-.89.97-.98.31-.05.66.07.85.31Z"/>
      <path class="st33" d="M24.94,12.45c-.62-.21-.5-.23-1.24-.25-.94-.02-1.29.42-1.46.42.04-.1.15-.12.24-.17.49-.29,1.08-.35,1.64-.3.34.03.57.16.82.31Z"/>
      <path class="st2" d="M18.6,5.19c-.13.03-.68-.35-.83-.34-.14-.12-.32-.18-.51-.27-.26-.12-.49-.29-.74-.39,0-.03-.04-.04-.04-.08.1.03.23.05.31.13.11.11.29.12.41.21.17.14.35.21.56.29.29.11.56.29.83.44Z"/>
      <path class="st30" d="M25.22,17.23c-.63.44-1.38.58-2.15.45-.45,0,.76-.09.37-.07.26-.01.5.08.73.02.35-.09.69-.21.97-.44,0-.07.05-.04.05,0,0,.01,0,.04.02.05Z"/>
      <path class="st17" d="M20.46,17.23c0,.17-.13.3-.25.41-.04-.03-.09.03-.13.04-.26.02-.52,0-.77,0,0-.02,0-.06,0-.08h.74c.15-.02.32-.21.35-.36.05-.31-.03-1.04.06-1.06v1.04Z"/>
      <path class="st59" d="M17.39,12.21c.31,0,.63.13.87.32-.15.02-.28-.2-.81-.26-.4-.05-.81,0-1.23-.02,0-.04.05-.05.04-.08.34,0,.68-.02,1.02.01.03,0,.06.03.1.03Z"/>
      <path class="st30" d="M24.35,19.63c.04-.17.14-.33.21-.51l.43-1.15.23-.75c.05-.02.05.02.06.06s-.03.06-.04.1l-.38,1.12c-.05.14-.42,1.11-.51,1.12Z"/>
      <path class="st46" d="M20.21,17.63s0,.06-.02.05c-.03-.04-.05.04-.08.04h-3.14s-.05-.02-.04-.04h2.37c.25,0,.51,0,.77,0,.04-.02.1-.07.13-.04Z"/>
      <path class="st7" d="M12.83,12.12c-.3-.11-.61-.24-.94-.19-.4.06-.72.2-.98.52-.05.06-.24-.09-.19-.17.06.03.09.09.16.14.27-.37.66-.53,1.08-.55.37-.02.62.06.88.25Z"/>
      <path class="st1" d="M7.98,20.59c-.21-.28-.34-.6-.51-.9-.04-.07-.12-.13-.11-.23,0-.14-.15-.23-.17-.36-.01-.1,0-.2-.03-.26l.83,1.74Z"/>
      <path class="st48" d="M18.6,5.19c.2.11.52.29.79.33.13.1.3.14.46.21,0,.02,0,.04-.02.04-.08,0-1.15-.46-1.34-.55-.25-.12-.51-.21-.71-.38.14-.01.69.38.83.34Z"/>
      <path class="st39" d="M14.82,13.49c-.59-.17-.1-.09-.75-.17-.39-.05-.67.13-1,.22.51-.36,1.25-.42,1.75-.05Z"/>
      <path class="st55" d="M22.36,17.39c-.33-.06-.71-.67-.83-.98-.06-.15-.1-.29-.16-.42.06-.04.11-.05.07.04l.2.51c.07.18.15.32.31.45s.28.28.41.41Z"/>
      <path class="st28" d="M8.43,13.98s0,.04-.04.07c-.01.01-.03.04-.04,0,0-.02,0-.05,0-.06v-1.36c-.07-.04-.04-.1-.04-.14.02,0,.05,0,.04.02-.03.03.04.05.04.07v1.35s.07.03.05.04Z"/>
      <path class="st83" d="M19.38,5.53c-.27-.04-.58-.22-.79-.33.08-.02.14.04.22.07l.5.2s.05.05.07.06Z"/>
      <path class="st73" d="M15.19,12.37c.03-.21.31-.25.54-.25v-7.54s.04-.02.04-.01v7.59c-.24-.02-.43.07-.58.21Z"/>
      <path class="st80" d="M7.93,12.21l-.05-.04h-1.27s-.04.03-.05.04c0-.02,0-.04,0-.08h1.35s0,.06,0,.08Z"/>
      <path class="st3" d="M20.79,12.21c-.06.01-.12-.03-.18-.03-.6-.02-1.2-.02-1.79,0-.13,0-.22.11-.31.15,0-.16.25-.21.41-.21h1.86s0,.07,0,.08Z"/>
      <path class="st47" d="M15.72,18.06v9.46c-.62-.3-1.21-.68-1.78-1.11-.53-.39-1.03-.76-1.51-1.2-1.2-1.01-2.2-2.18-3.07-3.49-.76-1.14-1.42-2.31-1.91-3.63h4.46c.27,0,.51-.06.71-.23.08-.13.07-.26.11-.44.45.63,1.21.85,1.94.62.15-.05.34-.15.47-.17.21.05.37.22.58.2Z"/>
      <path class="st78" d="M22.41,16.56c-.42-.57-.51-1.39-.44-2.1.1-.98.66-1.81,1.76-1.81.73,0,1.32.5,1.29,1.28l-.81.18c-.04-.21-.07-.41-.22-.53-.21-.17-.49-.17-.72.01-.42.34-.4,1.23-.34,1.79.03.3.14.59.39.77s.56.13.86-.01c.03-.22,0-.44,0-.69h-.66s.01-.79.01-.79h1.48s0,1.98,0,1.98c-.71.62-1.95.66-2.61-.08Z"/>
      <g>
        <path class="st62" d="M11.95,17.09c-.28.02-.55,0-.83,0-.11,0-.12-.12-.12-.21v-2.26c-.19.02-.32,0-.33-.14-.01-.18-.02-.36,0-.52s.23-.12.31-.16c.03-.73.11-1.36.95-1.46.26-.03.62.04.66.17.06.18-.02.68-.05.71-.08.07-.1-.08-.44-.03-.14.14-.15.37-.15.61l.6.05c0,.22.08.51-.01.7-.08.17-.4.09-.58.07v2.47Z"/>
        <path class="st49" d="M11.92,14.57v2.47c-.29.03-.54.01-.83,0v-2.48c-.09-.01-.29.05-.32-.05-.05-.19,0-.41-.02-.61h.33c.01-.43-.03-1.02.34-1.29.33-.24.75-.28,1.12-.11,0,.22.02.41-.02.65-.17-.06-.34-.05-.48.04-.18.27-.09.34-.11.71.2.03.37-.02.57-.03v.69s-.57,0-.57,0Z"/>
      </g>
      <g>
        <path class="st14" d="M9,16.11c.16,0,.09.81.08.99h-2.39s0-4.31,0-4.31c0-.05.08-.12.12-.12.13.03.91-.07.91.08v3.36s1.27,0,1.27,0Z"/>
        <polygon class="st49" points="9.01 16.19 9 17.05 6.77 17.06 6.77 12.75 7.68 12.76 7.68 16.19 9.01 16.19"/>
      </g>
      <g>
        <path class="st62" d="M9.39,17.1c-.16-.51.08-.38-.05-.91-.04-.17.09-.33.04-.5s-.03-.28-.02-.44c.04-.38.03-.78,0-1.17,0-.07-.04-.26.1-.26h.66c.07-.01.11,0,.15.03.05.05.06.08.06.17v3.05s-.95.01-.95.01Z"/>
        <path class="st49" d="M10.25,17.01c.05.09-.74.05-.82.04v-3.14s.83,0,.83,0v3.1Z"/>
      </g>
      <g>
        <path class="st43" d="M14.82,16.15s.03,0,.04,0l.26.52c-.43.42-1.1.59-1.67.3-.46-.23-.63-.74-.69-1.22-.07-.54.06-1.04.27-1.51.13-.1.22-.24.37-.32.48-.28,1.13-.22,1.45.24.18.25.23.55.23.83v.62s-1.48,0-1.48,0c-.02.24.04.55.28.68.3.15.68.05.93-.14Z"/>
        <path class="st54" d="M14.82,16.15c-.25.19-.63.3-.93.14-.24-.12-.31-.44-.28-.68h1.47s.01-.63.01-.63c0-.29-.05-.58-.23-.83-.32-.45-.96-.52-1.45-.24-.15.09-.25.23-.37.32.17-.37.58-.55.99-.55.49,0,.85.26,1.03.72.04.11.11.14.09.31-.01.08.1.13.03.26-.08.15.07.71-.16.71h-1.35c0,.24.08.5.31.57.15.04.35.02.5,0,.13-.01.24-.2.35-.11Z"/>
        <path class="st54" d="M14.86,16.15s.03-.05.05-.01l.23.44c.07.13-.06.2-.15.28-.33.27-.74.36-1.16.3-1.47-.19-1.24-2.56-.79-2.92-.22.47-.34.97-.27,1.51.06.48.22.99.69,1.22.57.28,1.23.11,1.67-.3l-.26-.52Z"/>
        <g>
          <path class="st72" d="M14.36,15.01h-.78c0-.22.05-.46.27-.59.06-.04.22-.02.3,0,.17.12.24.35.22.59Z"/>
          <path class="st67" d="M14.25,14.93c-.18.03-.39.02-.55,0-.09-.06-.01-.27.04-.34.07-.09.19-.17.32-.13.19.06.3.35.19.47Z"/>
        </g>
      </g>
      <g>
        <path class="st53" d="M17.46,17.1l-.57-1.45c-.04-.11-.17-.13-.26-.05,0,.45.06,1.14-.03,1.5h-.98s0-4.31,0-4.31c0-.05.08-.12.12-.12.47,0,.93,0,1.38.01.78.04,1.35.56,1.34,1.35,0,.51-.19.97-.71,1.2l.75,1.7s0,.07,0,.07c.04,0,0,.1-.03.1h-1Z"/>
        <path class="st50" d="M18.44,17.02c-.31.09-.61.02-.94.04l-.62-1.58h-.32s0,1.56,0,1.56h-.86s0-4.31,0-4.31c1.12.05,2.46-.3,2.67,1.09.1.51-.15,1.15-.69,1.37l.77,1.82Z"/>
        <g>
          <path class="st8" d="M17.44,14.07c0,.28-.1.57-.38.65-.16.04-.33-.01-.49.01v-1.22c.19.02.39-.02.56.03.22.07.31.31.32.52Z"/>
          <path class="st10" d="M17.36,14.19c0,.24-.13.43-.36.49-.11.03-.22,0-.36,0v-1.06c.12-.1.36-.07.49-.02.28.11.23.49.23.57Z"/>
        </g>
      </g>
      <g>
        <path class="st25" d="M19.88,15.65v1.44c-.2.01-.93.03-.99-.02-.03-.03-.05-.07-.05-.14v-4.02c0-.08.01-.14.05-.19.08-.12,1.21-.06,1.41-.05.72.03,1.29.44,1.37,1.19.09.88-.33,1.65-1.24,1.76-.18.02-.36.02-.56.02Z"/>
        <path class="st49" d="M21.61,14.44c-.12.9-.94,1.24-1.81,1.17v1.45s-.87,0-.87,0v-4.3c.55,0,1.05-.02,1.56.01.59.04,1.03.45,1.12,1.04.03.2.03.42,0,.64Z"/>
        <g>
          <path class="st23" d="M20.34,13.55c.39.07.48.87.1,1.2-.17.14-.42.15-.64.08l.02-1.32c.18,0,.35.01.52.04Z"/>
          <path class="st74" d="M20.57,14.41c-.05.47-.55.33-.69.41l.02-1.19c.16-.12.55-.06.65.16.08.19.05.42.02.63Z"/>
        </g>
      </g>
    </g>
  </g>
</svg>